<?xml version="1.0" standalone="no"?>
<!DOCTYPE svg PUBLIC "-//W3C//DTD SVG 20010904//EN"
 "http://www.w3.org/TR/2001/REC-SVG-20010904/DTD/svg10.dtd">
<svg version="1.0" xmlns="http://www.w3.org/2000/svg"
 width="2000.000000pt" height="2000.000000pt" viewBox="0 0 2000.000000 2000.000000"
 preserveAspectRatio="xMidYMid meet">

<g transform="translate(0.000000,2000.000000) scale(0.100000,-0.100000)"
fill="#000000" stroke="none">
<path d="M10411 17127 c-29 -36 -6 -89 33 -74 19 7 22 57 4 75 -15 15 -23 15
-37 -1z"/>
<path d="M12720 16985 c-14 -17 -7 -43 15 -51 21 -9 45 14 45 42 0 19 -5 24
-24 24 -13 0 -29 -7 -36 -15z"/>
<path d="M10980 16801 c-17 -32 -12 -79 9 -91 49 -26 87 -1 76 50 -12 56 -63
81 -85 41z"/>
<path d="M11786 16504 c-23 -23 -26 -35 -26 -90 0 -60 1 -63 34 -83 18 -12 43
-21 55 -21 25 0 62 17 73 34 14 20 8 80 -11 123 -31 67 -80 82 -125 37z"/>
<path d="M9970 16498 c0 -7 9 -47 20 -88 27 -102 25 -105 -17 -27 -19 37 -39
67 -43 67 -4 0 -15 -9 -25 -20 -19 -20 -18 -22 18 -96 l37 -74 -24 -11 c-22
-10 -28 -7 -62 32 -22 24 -54 59 -72 79 l-32 35 35 -79 c20 -43 34 -83 32 -89
-2 -6 -32 31 -67 81 -54 79 -65 90 -79 80 -9 -7 -17 -13 -19 -14 -1 0 16 -49
38 -109 22 -59 40 -110 40 -112 0 -17 -26 21 -67 97 -72 135 -81 114 -23 -52
55 -155 57 -163 36 -171 -10 -4 -37 32 -91 124 -42 73 -82 129 -90 129 -21 0
-20 -2 25 -130 23 -62 39 -117 38 -121 -2 -4 -34 42 -72 102 -85 137 -102 157
-114 144 -6 -6 12 -69 50 -173 33 -90 59 -165 56 -167 -2 -2 -83 -16 -178 -30
-1651 -246 -2877 -1057 -3717 -2458 -106 -177 -293 -557 -366 -742 -329 -842
-416 -1725 -262 -2674 14 -85 28 -164 31 -176 5 -20 -27 -34 -455 -201 l-460
-179 24 -24 c23 -24 25 -24 44 -7 13 12 20 13 23 5 3 -8 34 -2 103 19 55 17
100 30 102 29 1 -2 -36 -27 -82 -56 -47 -29 -85 -57 -85 -62 0 -5 17 -9 38 -9
l37 -1 -52 -48 c-45 -40 -54 -55 -59 -92 -6 -43 -5 -45 31 -62 21 -10 36 -19
34 -21 -2 -2 -199 -122 -438 -265 -238 -144 -439 -268 -447 -275 -7 -7 -99
-50 -206 -96 -106 -46 -209 -90 -228 -98 l-35 -16 28 -5 28 -6 -60 -70 c-54
-61 -59 -71 -45 -82 15 -11 14 -14 -4 -40 -32 -44 -60 -67 -164 -127 -54 -32
-98 -60 -98 -64 0 -4 12 -19 25 -34 17 -20 34 -28 57 -29 l33 0 -32 -16 c-39
-19 -39 -22 -13 -73 20 -39 21 -40 68 -34 l47 6 -32 -22 c-35 -23 -41 -35 -20
-43 8 -3 1 -14 -18 -30 -16 -14 -27 -28 -23 -32 4 -4 137 38 295 94 158 55
291 101 295 101 4 0 5 -7 1 -16 -7 -18 -31 -27 231 86 284 121 730 293 1131
436 99 36 263 85 365 110 233 56 277 71 480 157 131 55 1310 497 1327 497 3 0
3 -5 1 -11 -2 -6 -102 -54 -223 -108 -121 -54 -219 -104 -217 -110 1 -6 61
-115 133 -241 127 -223 131 -231 119 -260 -7 -17 -16 -27 -21 -23 -4 4 -69
116 -145 248 -75 132 -141 244 -145 250 -16 17 22 -98 57 -175 39 -84 69 -132
168 -273 61 -88 67 -100 54 -114 -14 -13 -33 14 -173 242 -161 260 -205 316
-231 294 -8 -6 -14 -15 -14 -20 0 -5 87 -145 194 -311 l195 -301 -26 -50 c-20
-41 -27 -47 -37 -36 -7 8 -78 115 -158 239 -80 124 -175 271 -212 328 l-66
102 -41 -20 c-22 -12 -39 -27 -36 -33 2 -7 111 -173 241 -370 130 -197 236
-362 236 -366 0 -5 -7 -12 -16 -15 -11 -4 -75 85 -261 367 -135 204 -248 375
-252 379 -3 3 -23 -1 -43 -9 l-37 -15 268 -401 c147 -221 270 -407 273 -412 3
-6 -2 -25 -11 -44 l-18 -33 -61 73 c-33 41 -57 76 -52 79 7 5 -89 160 -380
612 l-69 107 -64 -24 c-35 -13 -77 -29 -95 -37 l-31 -13 100 -165 c55 -91 115
-194 134 -230 49 -96 90 -147 143 -180 66 -41 72 -47 72 -77 0 -19 29 -55 120
-148 l121 -123 -16 -39 c-9 -21 -21 -49 -26 -62 -11 -28 37 -94 -398 542 -172
251 -316 457 -321 457 -16 0 -110 -43 -110 -50 0 -16 72 -176 107 -240 54 -98
183 -284 263 -380 39 -47 142 -161 228 -253 86 -92 159 -172 160 -178 6 -15
-1128 -2572 -1148 -2589 -10 -8 -126 -240 -259 -514 -233 -482 -246 -515 -211
-516 3 0 18 24 33 52 15 29 25 44 23 33 -3 -11 -8 -39 -11 -63 -7 -43 -7 -43
21 -36 l27 7 -7 -67 c-3 -36 -4 -66 -1 -66 4 0 16 5 28 12 43 23 68 19 79 -13
11 -32 18 -35 37 -16 11 10 12 4 6 -31 -4 -23 -4 -42 -2 -42 3 0 15 16 27 36
27 42 33 40 20 -6 l-10 -34 41 40 c30 28 40 33 36 19 -19 -65 -19 -75 -3 -75
8 0 23 -14 32 -32 l17 -32 66 130 c38 76 71 129 78 127 6 -2 29 25 50 60 72
120 188 277 202 274 9 -1 40 42 80 113 36 63 85 134 109 156 45 45 50 43 27
-12 -8 -20 -13 -40 -10 -44 3 -5 1 -30 -5 -56 -6 -26 -9 -48 -7 -50 2 -2 41
64 88 146 51 92 89 148 96 146 8 -3 17 11 24 34 20 65 32 48 27 -35 -5 -68 -4
-74 11 -62 9 8 53 44 97 80 79 65 82 66 95 46 l14 -21 29 23 28 22 18 -23 18
-23 23 36 c32 50 54 49 44 -1 -4 -20 -7 -41 -8 -46 -13 -69 220 273 295 434
24 52 84 165 132 250 49 85 90 160 93 165 5 10 -6 -2 -81 -100 -25 -32 -46
-56 -46 -53 0 6 679 1310 685 1316 2 2 79 -37 172 -86 1043 -558 2093 -774
3130 -642 743 95 1517 385 2251 842 79 50 145 88 146 86 2 -1 28 -78 58 -169
l56 -167 -39 -11 c-26 -8 -44 -21 -54 -41 -19 -36 -19 -44 1 -110 29 -97 104
-146 159 -104 19 14 21 12 40 -47 l21 -62 24 32 23 33 33 -83 c37 -91 41 -109
20 -109 -7 0 -26 -12 -41 -27 -23 -24 -26 -34 -23 -74 6 -55 44 -134 78 -161
19 -15 36 -19 72 -16 l46 5 94 -229 c72 -176 104 -243 143 -295 28 -36 54 -72
60 -79 7 -10 3 -19 -13 -34 -33 -31 -28 -70 14 -111 20 -18 50 -58 66 -87 16
-28 33 -50 37 -47 8 5 68 -114 63 -127 -1 -4 2 -8 8 -8 5 0 19 -18 31 -41 12
-24 15 -38 8 -33 -7 4 -4 -8 7 -27 11 -19 60 -105 109 -191 49 -86 92 -155 96
-153 4 3 25 -23 46 -57 60 -97 58 -92 39 -85 -19 7 -16 2 18 -47 12 -15 32
-32 46 -38 15 -6 20 -12 13 -16 -8 -5 4 -34 37 -91 58 -99 66 -109 80 -95 7 7
8 25 1 55 l-9 44 38 -44 c21 -25 100 -157 176 -295 266 -484 315 -566 433
-714 102 -129 105 -132 118 -124 9 6 6 21 -12 61 -14 29 -25 57 -25 62 0 24
22 1 86 -91 71 -103 102 -123 96 -65 -1 17 0 41 3 54 6 22 7 22 24 7 16 -15
25 -14 114 21 l97 37 0 36 c0 32 5 39 50 65 27 17 50 35 49 40 0 6 -13 43 -28
83 -16 39 -26 74 -22 76 4 3 31 -44 61 -102 34 -67 56 -100 58 -89 6 31 -17
177 -47 297 -60 236 -116 383 -326 855 -202 454 -264 624 -324 890 -37 164
-68 261 -196 615 -86 236 -106 304 -120 395 -8 61 -21 126 -27 145 -6 19 -86
193 -178 385 -92 193 -197 425 -234 516 -72 180 -286 790 -286 815 0 9 77 147
171 307 206 350 322 561 376 682 60 133 318 826 346 930 56 202 65 298 73 799
5 275 4 396 -3 396 -19 0 -358 -92 -364 -98 -4 -4 -1 -47 5 -96 7 -48 12 -98
11 -110 -10 -119 -40 -336 -47 -336 -4 0 -8 119 -8 265 0 205 -3 265 -12 265
-19 -1 -208 -46 -213 -52 -4 -4 -85 -480 -85 -499 0 -5 -7 -9 -15 -9 -8 0 -15
9 -15 19 0 25 28 357 36 428 l5 52 -50 -20 -50 -21 -6 -57 c-34 -300 -67 -491
-126 -729 -99 -403 -266 -785 -419 -965 -42 -49 -50 -55 -50 -35 1 83 24 156
109 350 113 258 149 363 195 558 40 174 159 831 151 838 -3 3 -42 0 -87 -6
-45 -7 -83 -10 -85 -8 -2 2 30 18 72 37 76 33 93 56 39 52 -16 -1 16 13 71 32
54 19 105 35 111 35 6 0 15 -15 18 -34 l6 -34 56 21 c55 20 55 21 35 37 -21
15 -20 16 45 33 72 20 94 18 39 -2 -32 -11 -50 -41 -25 -41 13 0 1374 361
1379 365 2 2 -7 7 -20 10 -14 3 -153 -25 -334 -69 -170 -41 -311 -73 -313 -72
-6 7 267 95 311 101 26 3 99 24 161 46 63 21 123 39 133 39 12 0 14 3 6 8 -8
5 -3 12 17 19 17 6 30 8 30 3 0 -13 115 25 427 141 161 60 325 118 365 129 80
22 292 67 377 80 29 5 147 32 261 60 113 28 373 89 576 135 279 65 351 84 294
80 -41 -3 -89 -8 -106 -11 -29 -5 -33 -3 -44 30 -7 22 -18 36 -28 36 -54 0
-264 -45 -817 -174 -1265 -295 -1632 -385 -2395 -589 -278 -75 -560 -149 -628
-167 -122 -30 -549 -130 -558 -130 -3 0 -4 8 -2 17 3 15 414 120 2333 600
1282 320 2312 580 2290 577 -171 -23 -2188 -499 -2900 -684 -824 -214 -973
-252 -1226 -310 -144 -33 -267 -59 -272 -57 -24 8 91 42 328 98 137 33 574
142 970 244 1375 353 1749 442 2810 671 426 92 596 132 611 146 11 10 33 18
50 19 16 1 40 5 54 9 19 6 11 8 -33 9 -40 1 -59 -3 -63 -13 -7 -19 -164 -33
-175 -15 -16 27 -282 -22 -804 -146 -192 -45 -492 -115 -665 -155 -347 -79
-1243 -301 -2008 -496 -271 -70 -495 -125 -497 -123 -1 2 -5 13 -7 23 -3 18
150 56 1989 495 1096 262 1983 477 1973 479 -40 7 -18 21 52 33 110 20 64 22
-69 4 -162 -22 -297 -49 -893 -176 -716 -153 -1068 -235 -1795 -419 -795 -200
-1149 -298 -1474 -405 -297 -97 -389 -121 -667 -170 -233 -41 -214 -39 -214
-22 0 9 40 20 123 36 68 12 130 28 138 35 14 13 488 146 928 261 684 178 3022
754 3286 810 120 25 221 48 224 50 15 16 -23 16 -126 2 -65 -10 -133 -17 -152
-17 -25 0 -32 -4 -27 -15 3 -8 1 -15 -3 -15 -5 0 -18 -3 -28 -7 -16 -6 -16 -5
-4 10 12 15 11 17 -5 17 -58 -1 -264 -29 -762 -104 -410 -62 -582 -84 -652
-84 -52 1 -110 -3 -127 -6 -18 -4 -33 -4 -33 1 0 5 89 35 198 67 187 55 198
60 195 81 l-5 22 -186 -38 c-103 -20 -189 -35 -191 -33 -5 5 0 7 228 77 113
34 206 67 208 72 1 6 -1 16 -5 23 -7 10 -29 8 -113 -7 -216 -41 -290 -51 -494
-66 -234 -17 -293 -25 -648 -91 -137 -25 -249 -44 -251 -43 -1 2 -17 54 -35
114 -72 242 -191 544 -312 790 -606 1240 -1676 2143 -3224 2720 -99 37 -183
70 -186 74 -4 3 9 60 27 126 19 66 34 126 34 133 0 21 -23 13 -56 -19 l-32
-31 -6 39 c-11 65 -19 68 -54 19 -22 -31 -38 -43 -48 -39 -13 5 -14 21 -10 97
l6 91 -23 -47 c-12 -26 -25 -48 -29 -48 -5 0 -8 18 -8 39 0 49 -11 56 -50 36
-16 -8 -30 -12 -30 -7 0 4 -6 17 -14 27 -13 18 -16 18 -60 -19 -26 -21 -49
-36 -51 -34 -2 2 0 29 4 61 l8 57 -33 -25 -32 -24 -26 59 -25 60 -63 -40 c-47
-29 -64 -36 -66 -25 -2 8 -11 16 -20 19 -36 10 -134 28 -137 24 -1 -1 -14 -25
-27 -51 l-24 -49 -93 101 c-87 94 -121 119 -121 89z m-215 -548 c3 -5 2 -10
-4 -10 -5 0 -13 5 -16 10 -3 6 -2 10 4 10 5 0 13 -4 16 -10z m1565 -269 c0 -9
-336 72 -347 83 -3 3 2 24 12 45 l18 40 158 -80 c88 -43 159 -83 159 -88z
m-1710 46 c0 -5 -20 3 -44 17 -25 14 -49 26 -55 26 -5 0 -15 -16 -21 -35 l-12
-35 -110 0 c-97 0 -109 -2 -98 -15 11 -13 0 -15 -88 -15 -80 0 -100 -3 -96
-13 6 -18 -202 -74 -306 -82 -123 -10 -179 -23 -264 -60 -45 -20 -90 -38 -100
-40 -11 -3 -22 -9 -25 -13 -9 -15 -68 -42 -90 -42 -14 0 -18 5 -14 20 3 11 3
20 -1 20 -3 0 -40 -22 -82 -50 -54 -35 -87 -50 -110 -50 -36 0 -179 -67 -269
-125 -27 -18 -88 -47 -135 -66 -82 -32 -225 -123 -216 -138 3 -4 -45 -32 -107
-62 -62 -30 -146 -79 -187 -110 -116 -86 -274 -192 -287 -192 -6 0 -22 -17
-35 -37 -15 -25 -47 -51 -92 -76 -55 -32 -94 -68 -205 -188 -207 -228 -208
-229 -369 -421 -134 -159 -150 -181 -135 -192 15 -12 15 -14 -2 -33 -13 -15
-21 -17 -31 -9 -10 8 -23 -10 -61 -88 -37 -76 -64 -115 -121 -174 -70 -74 -71
-77 -48 -83 23 -6 24 -9 14 -36 -10 -31 -22 -38 -34 -19 -10 16 -20 1 -52 -81
-16 -41 -32 -84 -37 -95 -7 -17 -9 -15 -16 15 -7 31 2 53 86 220 96 189 287
506 390 647 148 200 775 775 1088 996 393 279 949 529 1447 651 160 40 490 99
720 130 l165 22 22 -41 c12 -22 22 -44 23 -48z m229 63 l16 -24 -28 18 c-15
10 -27 23 -27 28 0 16 22 4 39 -22z m1154 -253 c-7 -11 -83 63 -83 80 0 7 8
29 17 48 l17 37 27 -79 c14 -43 24 -82 22 -86z m255 77 c463 -102 914 -336
1387 -718 130 -105 395 -335 395 -343 0 -3 -21 11 -47 31 -81 61 -237 167
-482 325 -129 83 -255 170 -281 191 -26 22 -53 40 -59 40 -6 0 -51 25 -99 57
-91 59 -177 103 -201 103 -8 0 -162 65 -342 145 -180 80 -332 145 -338 145
-26 0 -5 -20 80 -79 49 -35 89 -65 87 -67 -3 -2 -64 14 -137 34 l-134 38 -18
60 c-10 32 -19 63 -19 68 0 11 66 1 208 -30z m-1729 -55 c22 -64 22 -65 -101
-78 -723 -78 -1457 -354 -2123 -797 -376 -250 -712 -574 -1023 -986 -110 -146
-301 -428 -382 -565 -23 -40 -44 -73 -47 -73 -11 0 202 399 295 555 188 312
263 404 591 719 354 341 701 583 1146 801 486 238 942 373 1470 435 83 10 153
18 157 19 3 1 11 -13 17 -30z m1394 -75 c16 -31 27 -58 25 -59 -2 -2 -26 11
-55 27 l-52 30 21 29 c12 16 24 29 28 29 3 0 18 -25 33 -56z m121 -72 c30 -43
32 -52 12 -52 -15 0 -68 75 -59 84 12 12 20 6 47 -32z m314 -27 c192 -56 426
-141 548 -200 135 -65 235 -139 385 -285 l114 -112 -70 37 c-38 21 -164 90
-280 153 -115 63 -369 193 -562 288 -194 96 -353 176 -353 178 0 5 12 2 218
-59z m-1809 11 c10 -11 0 -16 -56 -29 -38 -9 -117 -21 -178 -27 -234 -24 -530
-94 -836 -199 -402 -137 -559 -218 -1084 -555 -143 -92 -284 -186 -314 -209
-177 -136 -341 -306 -581 -602 -124 -152 -217 -256 -195 -215 80 144 283 398
450 565 390 390 965 759 1515 973 328 127 723 244 922 272 298 42 341 45 357
26z m1669 -61 c37 -25 64 -45 59 -45 -6 0 -138 50 -145 55 -4 3 9 35 14 35 3
0 35 -20 72 -45z m-236 -28 c4 -7 8 -29 8 -50 l0 -38 -50 42 c-64 54 -66 74
-8 65 23 -4 46 -12 50 -19z m102 -41 c11 -18 13 -27 4 -32 -11 -7 -48 29 -48
47 0 18 28 8 44 -15z m-1557 -10 c1 0 -4 -15 -11 -31 -13 -31 -15 -31 -237
-79 -568 -121 -825 -209 -1271 -432 -302 -151 -593 -328 -791 -481 -360 -279
-666 -645 -976 -1170 -56 -95 -104 -173 -106 -173 -2 0 30 66 72 148 344 666
450 819 751 1083 508 447 969 735 1413 883 246 82 1054 269 1119 259 19 -3 36
-6 37 -7z m114 -28 c-4 -17 -12 -33 -19 -36 -12 -4 -11 20 4 66 8 27 21 1 15
-30z m1362 -79 c37 -59 42 -89 14 -89 -15 0 -80 127 -72 141 11 17 20 9 58
-52z m114 -25 c-10 -10 -48 27 -41 38 4 6 16 1 27 -11 12 -11 18 -24 14 -27z
m405 20 c140 -44 500 -235 506 -268 3 -15 -17 -7 -104 39 -60 32 -196 103
-303 157 -107 54 -192 98 -188 98 3 0 43 -12 89 -26z m-169 -65 c300 -100 550
-240 756 -424 56 -50 59 -55 36 -55 -25 0 -127 50 -662 327 -194 101 -248 133
-273 164 -17 22 -26 39 -20 39 6 0 80 -23 163 -51z m-1753 31 c0 -18 -83 -210
-91 -210 -21 0 -15 25 28 119 42 90 63 121 63 91z m-2010 -19 c-10 -21 -30
-37 -30 -26 0 14 21 45 31 45 6 0 6 -7 -1 -19z m1865 -23 c-23 -118 -91 -171
-269 -213 -126 -29 -674 -205 -844 -271 -160 -62 -320 -146 -532 -280 -102
-64 -233 -145 -293 -181 -326 -196 -529 -408 -860 -900 -265 -394 -400 -656
-502 -973 -78 -243 -208 -845 -234 -1082 -26 -237 -8 -595 43 -860 l23 -118
-80 -30 c-43 -16 -82 -30 -87 -30 -15 0 -23 525 -11 761 33 658 141 1115 448
1889 204 517 367 780 679 1100 476 487 1132 885 1779 1079 217 65 578 137 698
140 l49 1 -7 -32z m1667 5 c21 -19 24 -43 5 -43 -11 0 -37 39 -37 55 0 10 14
4 32 -12z m-56 -116 c26 -76 14 -91 -16 -21 -29 68 -36 98 -20 92 8 -2 24 -34
36 -71z m209 43 c17 -11 25 -20 18 -20 -19 0 -63 22 -63 32 0 13 13 10 45 -12z
m-96 -82 c26 -84 27 -94 13 -106 -9 -6 -19 -9 -23 -5 -11 13 -58 186 -53 195
17 27 36 1 63 -84z m331 -49 c203 -104 306 -177 540 -385 85 -75 240 -210 345
-298 537 -456 790 -738 952 -1061 30 -60 53 -108 50 -105 -3 3 -38 54 -77 115
-257 389 -567 710 -1004 1039 -279 210 -439 303 -776 452 -123 54 -166 78
-207 117 -56 52 -83 111 -83 179 0 38 0 38 41 38 32 0 80 -20 219 -91z m-2040
-69 c-19 -12 -30 -12 -30 -1 0 10 31 20 40 14 2 -2 -2 -8 -10 -13z m-175 -19
c3 -5 -21 -15 -52 -21 -135 -27 -190 -43 -418 -120 -520 -177 -654 -239 -1050
-485 -173 -108 -265 -160 -265 -151 0 5 431 280 540 343 304 178 430 229 905
364 265 75 328 88 340 70z m3284 -190 c381 -273 761 -651 1044 -1039 172 -237
360 -559 458 -787 52 -123 164 -444 156 -451 -2 -3 -14 24 -27 58 -74 209
-223 521 -345 728 -339 571 -817 1092 -1420 1545 -71 54 -132 100 -135 103 -3
2 31 -14 75 -36 44 -22 131 -77 194 -121z m-1349 88 c0 -6 -7 -6 -20 1 -11 6
-20 15 -20 21 0 6 7 6 20 -1 11 -6 20 -15 20 -21z m-1814 -27 c-15 -46 -188
-419 -201 -431 -8 -8 -17 -12 -21 -8 -10 9 156 396 184 429 27 32 46 37 38 10z
m-241 -142 c-74 -148 -151 -347 -509 -1320 -172 -469 -186 -501 -233 -578 -39
-63 -69 -82 -180 -117 -77 -25 -85 -26 -96 -11 -11 15 -16 13 -48 -21 -29 -31
-42 -59 -67 -148 -40 -138 -49 -212 -57 -445 -7 -208 -24 -347 -54 -433 -37
-105 -174 -366 -227 -430 -70 -85 -164 -218 -164 -231 0 -6 -100 -44 -222 -85
-123 -40 -369 -131 -548 -201 -393 -154 -559 -215 -565 -208 -3 3 -6 128 -7
279 -1 240 2 302 26 499 62 523 97 702 203 1025 88 271 311 809 414 1004 200
376 570 738 1084 1061 163 103 488 263 666 329 197 73 560 174 647 180 7 1
-21 -65 -63 -149z m2253 88 c121 -85 121 -87 2 -28 -58 29 -107 54 -109 56 -5
5 7 34 15 34 3 0 45 -28 92 -62z m1115 -167 c158 -126 338 -274 400 -329 140
-125 329 -318 389 -397 141 -186 482 -786 694 -1220 124 -254 137 -289 132
-355 -3 -44 -5 -39 -73 130 -125 313 -331 706 -586 1115 -162 259 -252 369
-538 655 -274 274 -375 363 -593 521 -76 55 -138 103 -138 105 0 19 64 -26
313 -225z m-278 24 c463 -305 747 -563 1009 -914 153 -206 263 -406 548 -996
204 -422 220 -467 177 -480 -12 -4 -25 -3 -29 2 -4 4 -40 82 -80 173 -182 419
-416 848 -599 1103 -198 275 -336 421 -686 721 -193 165 -625 561 -625 572 0
6 18 -6 285 -181z m-947 -118 c40 -128 72 -236 72 -240 0 -4 -6 -7 -13 -7 -7
0 -43 92 -90 233 -42 128 -77 236 -77 240 0 4 8 7 18 7 15 0 31 -41 90 -233z
m261 3 c702 -542 1148 -992 1476 -1490 164 -248 274 -459 375 -717 53 -134 58
-153 37 -153 -7 0 -255 -34 -551 -75 -296 -42 -540 -74 -541 -73 -21 26 -392
874 -523 1193 -75 184 -91 238 -67 229 12 -5 13 3 9 43 -6 62 -34 456 -34 483
0 16 -7 20 -30 20 -23 0 -57 20 -130 75 -89 67 -116 95 -92 95 4 0 38 -20 76
-44 64 -40 70 -42 87 -27 32 27 22 45 -46 79 -140 73 -212 207 -260 486 l-7
39 28 -17 c14 -10 101 -76 193 -146z m1379 141 c3 -8 -1 -12 -9 -9 -7 2 -15
10 -17 17 -3 8 1 12 9 9 7 -2 15 -10 17 -17z m202 -31 c0 -5 -4 -10 -10 -10
-5 0 -10 5 -10 10 0 6 5 10 10 10 6 0 10 -4 10 -10z m-42 -59 c6 -18 -11 -12
-43 14 l-30 25 35 -14 c19 -8 36 -19 38 -25z m-1160 -43 c182 -105 291 -181
457 -319 474 -393 805 -798 1054 -1289 133 -262 271 -603 271 -671 0 -63 -20
-30 -85 139 -205 537 -362 823 -639 1167 -197 244 -374 404 -801 725 -254 192
-396 310 -371 310 4 0 56 -28 114 -62z m1287 22 c3 -5 2 -10 -4 -10 -5 0 -13
5 -16 10 -3 6 -2 10 4 10 5 0 13 -4 16 -10z m-10 -108 c-2 -3 -20 -1 -40 2
-36 7 -43 23 -28 62 5 15 11 11 39 -22 18 -21 31 -40 29 -42z m-1096 -235
c188 -164 341 -300 341 -302 0 -3 -162 124 -359 282 -323 257 -358 288 -348
304 7 11 15 18 19 17 3 -2 160 -137 347 -301z m1352 -25 c10 -27 8 -27 -42 -2
-46 24 -44 41 2 31 20 -4 35 -15 40 -29z m-1986 18 c3 -6 -1 -7 -9 -4 -18 7
-21 14 -7 14 6 0 13 -4 16 -10z m2240 -200 c3 -5 1 -10 -4 -10 -6 0 -11 5 -11
10 0 6 2 10 4 10 3 0 8 -4 11 -10z m-65 -70 c0 -47 -11 -51 -38 -12 -36 51
-36 52 2 52 35 0 36 -1 36 -40z m-1169 -47 c13 -16 12 -17 -3 -4 -17 13 -22
21 -14 21 2 0 10 -8 17 -17z m1234 -21 c6 -4 11 -12 12 -19 1 -6 81 -131 177
-277 142 -218 183 -289 224 -389 28 -67 75 -182 105 -254 39 -94 50 -130 39
-124 -30 16 -49 44 -111 161 -72 139 -96 201 -80 210 14 9 -9 56 -46 90 -14
14 -63 97 -108 185 -45 87 -96 178 -114 202 -37 48 -127 223 -116 223 5 0 13
-4 18 -8z m-6798 -244 c-115 -150 -137 -173 -144 -151 -3 8 256 313 265 313 1
0 -53 -73 -121 -162z m3313 111 c0 -28 -4 -39 -15 -39 -11 0 -15 11 -15 38 0
21 3 42 6 45 14 13 24 -6 24 -44z m3903 -176 c185 -298 231 -382 266 -479 58
-160 42 -137 -119 166 -147 278 -218 409 -272 498 -11 17 -17 32 -15 32 3 0
66 -98 140 -217z m-3755 -178 c100 -268 101 -269 88 -273 -6 -2 -60 110 -122
250 -112 250 -113 253 -91 265 12 6 25 9 29 5 4 -4 47 -115 96 -247z m-1531
190 c-11 -31 -22 -53 -25 -51 -6 7 30 106 39 106 4 0 -2 -25 -14 -55z m1323
13 c0 -30 -487 -1285 -584 -1503 -15 -33 -81 -158 -148 -277 -66 -120 -138
-264 -160 -320 -40 -102 -58 -136 -58 -107 0 28 935 2247 942 2236 4 -7 8 -20
8 -29z m2863 -346 c221 -353 308 -504 402 -697 92 -188 131 -275 117 -260 -12
13 -722 1222 -722 1230 0 3 11 -2 25 -11 13 -9 94 -127 178 -262z m-2223 169
c0 -25 -18 1 -25 34 l-6 30 15 -25 c8 -14 15 -32 16 -39z m-2022 8 c-6 -16
-12 -28 -15 -26 -7 7 8 57 18 57 4 0 3 -14 -3 -31z m1549 -227 c83 -191 109
-261 102 -274 -7 -12 2 -43 31 -109 22 -51 40 -96 40 -101 0 -4 -12 -8 -27 -8
-49 0 -89 -33 -102 -83 -32 -130 9 -239 92 -239 46 0 95 27 115 63 10 16 20
29 23 29 11 0 285 -657 277 -665 -6 -6 -1540 -406 -1544 -403 -4 5 870 2048
876 2048 3 0 55 -116 117 -258z m816 -447 c164 -349 301 -643 304 -653 3 -12
-2 -22 -13 -26 -9 -3 -18 -5 -19 -4 -8 9 -605 1301 -605 1309 0 5 8 9 18 9 13
-1 89 -155 315 -635z m-259 3 c158 -332 288 -607 289 -613 1 -5 -4 -10 -11
-10 -8 0 -133 256 -298 609 -156 335 -284 611 -284 613 0 31 64 -95 304 -599z
m-5300 429 c-22 -41 -44 -61 -44 -41 0 17 56 102 63 95 4 -4 -4 -29 -19 -54z
m5197 16 c13 -16 12 -17 -3 -4 -17 13 -22 21 -14 21 2 0 10 -8 17 -17z m101
-598 c99 -209 194 -413 210 -453 29 -73 74 -252 58 -236 -4 5 -42 92 -85 194
-42 102 -159 367 -261 591 -101 223 -184 416 -184 429 0 27 8 12 262 -525z
m765 523 c-3 -8 -6 -5 -6 6 -1 11 2 17 5 13 3 -3 4 -12 1 -19z m-5492 -125
c-263 -589 -418 -1304 -458 -2108 -1 -27 -6 63 -10 200 -13 375 8 588 87 910
43 176 157 552 201 668 89 228 201 447 229 447 2 0 -20 -53 -49 -117z m-440
-280 c-178 -490 -176 -485 -181 -481 -12 13 74 298 138 458 116 287 170 411
175 406 3 -3 -57 -175 -132 -383z m-195 346 c0 -30 -24 -99 -35 -99 -9 0 -9
13 3 55 8 30 19 55 24 55 4 0 8 -5 8 -11z m5525 -405 c94 -202 171 -372 173
-378 8 -29 -34 38 -75 119 -59 117 -283 604 -283 616 0 34 34 -33 185 -357z
m-1204 302 c-10 -17 -28 -47 -40 -66 -28 -46 -26 -34 5 44 18 46 30 63 40 59
12 -4 11 -11 -5 -37z m3839 -332 c84 -152 158 -299 166 -327 7 -28 12 -52 11
-53 -1 -1 -16 -5 -32 -8 l-31 -7 -78 203 c-43 112 -105 263 -136 336 -32 72
-56 132 -55 132 2 0 71 -124 155 -276z m-7314 198 c-32 -62 -117 -286 -169
-448 -97 -297 -163 -599 -207 -939 -14 -111 -18 -128 -19 -80 -4 207 57 584
136 845 44 147 227 610 250 633 24 24 26 21 9 -11z m8157 -65 c-6 -11 -27 23
-37 63 -5 18 0 14 18 -14 14 -22 22 -44 19 -49z m-5623 53 c0 -13 -48 -110
-54 -110 -3 0 5 27 17 60 20 54 37 77 37 50z m-3390 -77 c0 -14 -19 -38 -25
-32 -8 8 5 39 16 39 5 0 9 -3 9 -7z m265 -202 c-18 -62 -35 -115 -37 -116 -2
-2 -9 -1 -16 3 -8 6 1 39 35 120 26 61 48 110 50 109 1 -2 -13 -54 -32 -116z
m8604 14 c46 -83 49 -95 23 -95 -14 0 -24 18 -41 73 -13 39 -26 78 -28 85 -3
6 -3 12 0 12 3 0 24 -34 46 -75z m-5705 2 c-14 -32 -30 -57 -35 -57 -5 0 -9 3
-9 6 0 8 64 113 68 110 1 -2 -9 -28 -24 -59z m5839 -90 c-8 -13 -19 3 -41 63
-35 95 -34 97 6 20 22 -41 38 -79 35 -83z m-5019 95 c2 -4 -8 -30 -24 -57 -34
-58 -35 -57 -15 13 15 49 27 63 39 44z m1408 -569 c44 -96 78 -176 76 -178 -2
-2 -14 -2 -25 1 -18 5 -52 74 -173 348 -83 187 -153 355 -156 371 -6 36 165
-298 278 -542z m-4687 -38 c-115 -453 -131 -489 -80 -179 36 214 113 494 176
639 37 86 9 -49 -96 -460z m8218 381 c-3 -5 -12 2 -19 15 -7 13 -10 28 -7 33
3 5 12 -2 19 -15 7 -13 10 -28 7 -33z m1257 50 c0 -2 -9 -6 -20 -9 -11 -3 -18
-1 -14 4 5 9 34 13 34 5z m610 -76 c-8 -5 -28 -9 -45 -9 l-30 1 30 8 c17 4 37
8 45 9 13 1 13 0 0 -9z m-2840 -205 c0 -8 -4 -15 -9 -15 -5 0 -248 -36 -541
-80 -293 -44 -536 -77 -541 -74 -5 3 -9 11 -9 19 0 9 27 17 88 25 48 7 283 41
522 75 494 71 490 71 490 50z m3964 -13 c5 -8 -144 -55 -151 -48 -4 4 118 54
134 55 6 1 14 -3 17 -7z m-5316 -27 c-3 -3 -9 2 -12 12 -6 14 -5 15 5 6 7 -7
10 -15 7 -18z m5389 -21 c-3 -3 -12 -4 -19 -1 -8 3 -5 6 6 6 11 1 17 -2 13 -5z
m-3724 -61 c-7 -2 -19 -2 -25 0 -7 3 -2 5 12 5 14 0 19 -2 13 -5z m-5004 -319
c-110 -252 -149 -329 -149 -297 0 15 223 527 244 558 44 66 18 -3 -95 -261z
m4761 271 c0 -8 -3 -15 -7 -15 -4 0 -174 -29 -379 -65 -368 -64 -424 -72 -410
-57 7 6 740 149 779 151 9 1 17 -6 17 -14z m2820 -155 c-8 -5 -19 -10 -25 -10
-5 0 -3 5 5 10 8 5 20 10 25 10 6 0 3 -5 -5 -10z m-2780 -8 c0 -5 -41 -21 -91
-37 -69 -22 -86 -31 -69 -35 35 -8 37 -30 3 -30 -66 -1 -402 -31 -443 -39 -65
-14 -100 -13 -100 2 0 15 23 20 440 101 244 48 260 50 260 38z m2636 -28 c-26
-9 -51 -13 -54 -10 -8 9 40 25 73 25 25 0 22 -3 -19 -15z m-232 -53 c-11 -11
-125 -44 -130 -38 -6 5 130 56 135 50 3 -2 0 -7 -5 -12z m-6789 -8 c-4 -10
-34 -93 -67 -185 -33 -93 -64 -168 -69 -168 -4 0 -11 5 -14 11 -8 13 134 359
148 359 5 0 6 -8 2 -17z m6490 -73 c-27 -12 -35 -12 -35 0 0 6 12 10 28 9 24
0 25 -1 7 -9z m-4945 -30 c0 -11 -2 -20 -5 -20 -2 0 -215 -54 -473 -120 -258
-66 -476 -120 -485 -120 -9 0 -17 6 -17 14 0 9 47 25 143 50 78 21 295 77 482
126 187 48 343 88 348 89 4 1 7 -8 7 -19z m4855 10 c-3 -5 -18 -10 -33 -9 -24
0 -25 1 -7 9 28 12 47 12 40 0z m-4535 -25 c8 -9 8 -15 2 -15 -18 0 -42 12
-42 21 0 14 26 10 40 -6z m4395 -3 c-14 -12 -136 -44 -143 -37 -8 8 -1 11 63
28 71 18 93 20 80 9z m-4502 -22 c3 -11 3 -20 0 -20 -2 0 -68 -14 -145 -31
-77 -17 -142 -28 -145 -25 -7 7 2 10 147 57 136 45 136 45 143 19z m3162 -55
c0 -8 -262 -75 -290 -74 -5 1 49 20 120 44 127 42 170 50 170 30z m-510 -134
c-6 -4 -23 -13 -40 -19 -16 -5 -38 -13 -47 -17 -11 -4 -18 -3 -18 4 0 6 21 17
48 25 56 18 70 19 57 7z m-4095 -20 c0 -5 -51 -21 -112 -35 -62 -15 -121 -29
-130 -32 -12 -3 -18 0 -18 9 0 11 24 20 78 32 42 9 91 20 107 25 41 11 75 12
75 1z m600 -41 c-8 -5 -22 -9 -30 -9 -10 0 -8 3 5 9 27 12 43 12 25 0z m-1838
-36 c-11 -23 -18 -31 -20 -21 -4 19 15 57 28 57 5 0 2 -16 -8 -36z m4898 -14
c-8 -5 -19 -10 -25 -10 -5 0 -3 5 5 10 8 5 20 10 25 10 6 0 3 -5 -5 -10z m306
-9 c-4 -5 -29 -12 -56 -16 -27 -4 -52 -11 -56 -16 -3 -5 -18 -9 -34 -9 -16 0
-68 -9 -116 -20 -48 -11 -88 -19 -89 -18 -2 2 -5 12 -7 23 -3 18 9 21 137 41
153 24 229 29 221 15z m-4476 -18 c-1 -19 -19 -35 -30 -28 -10 6 -9 11 5 22
22 15 25 16 25 6z m3937 -59 c-3 -3 -12 -4 -19 -1 -8 3 -5 6 6 6 11 1 17 -2
13 -5z m283 2 c0 -2 -7 -7 -16 -10 -8 -3 -12 -2 -9 4 6 10 25 14 25 6z m-400
-27 c-104 -22 -100 -22 -100 -5 0 15 39 21 140 23 37 1 31 -2 -40 -18z m-7423
-101 c-2 -24 -4 -7 -4 37 0 44 2 63 4 43 2 -21 2 -57 0 -80z m9323 24 c0 -7
-4 -10 -10 -7 -5 3 -10 16 -10 28 0 18 2 19 10 7 5 -8 10 -21 10 -28z m47 -54
c-4 -35 -16 -191 -28 -348 -12 -157 -25 -289 -30 -294 -14 -16 -22 1 -30 61
-6 44 -5 61 6 73 8 9 12 25 10 35 -2 11 -6 48 -9 83 -4 48 -3 62 8 62 10 0 16
40 25 168 14 201 18 222 38 222 13 0 15 -10 10 -62z m-5109 -10 c-5 -13 -165
-57 -207 -58 -47 0 -7 18 94 43 122 30 118 30 113 15z m4054 -40 c2 -36 7 -44
26 -46 12 -2 22 -6 22 -9 0 -2 -16 -55 -35 -116 -19 -62 -53 -200 -75 -307
-62 -305 -124 -500 -206 -644 -27 -48 -25 -54 -64 134 -25 117 -36 150 -56
171 l-26 27 31 7 c42 9 45 19 17 51 -20 24 -30 28 -68 25 -64 -4 -152 33 -211
88 -56 52 -98 129 -152 281 -21 58 -51 131 -66 163 -16 31 -28 57 -27 58 76
16 841 157 860 158 25 1 27 -2 30 -41z m-4802 28 c0 -2 -13 -9 -30 -15 -24 -8
-30 -7 -30 5 0 9 10 14 30 14 17 0 30 -2 30 -4z m2380 -96 c0 -19 -7 -20 -91
-20 -70 0 -138 -10 -302 -46 -393 -85 -820 -185 -1279 -300 -252 -63 -468
-114 -480 -113 -39 1 257 98 442 144 155 39 844 202 1325 314 138 32 190 39
278 40 101 1 107 0 107 -19z m-3185 -9 c-3 -6 -11 -11 -17 -11 -6 0 -6 6 2 15
14 17 26 13 15 -4z m-2444 -308 c21 -131 39 -245 39 -254 0 -13 -55 -39 -84
-39 -3 0 -6 122 -6 272 0 149 3 269 6 266 3 -4 23 -113 45 -245z m3859 232
c-43 -17 -50 -17 -50 -6 0 11 24 19 60 19 21 0 20 -1 -10 -13z m-4216 -17 c3
-13 24 -140 46 -283 23 -143 44 -270 47 -282 4 -18 -2 -25 -32 -37 -21 -9 -41
-16 -45 -16 -4 0 -12 134 -19 298 -7 163 -14 307 -17 320 -2 12 0 22 6 22 5 0
12 -10 14 -22z m1882 7 c-22 -17 -56 -20 -56 -6 0 8 19 14 65 19 6 1 1 -5 -9
-13z m3874 -51 c-58 -13 -280 -62 -495 -109 -214 -48 -547 -124 -739 -171
-192 -46 -351 -84 -355 -83 -20 3 427 136 604 180 220 54 684 153 835 178 69
11 136 22 150 24 14 2 43 5 65 5 27 0 6 -7 -65 -24z m-5950 -80 c0 -14 -4 -23
-10 -19 -5 3 -10 15 -10 26 0 10 5 19 10 19 6 0 10 -12 10 -26z m6065 0 c-16
-6 -1763 -404 -1772 -403 -15 1 219 79 434 144 427 130 792 210 1138 250 107
12 220 18 200 9z m2951 -81 c-10 -26 -18 -8 -9 23 5 21 8 24 11 11 2 -10 1
-25 -2 -34z m-2866 19 c21 -17 18 -18 -157 -46 -540 -87 -1236 -248 -2225
-514 -119 -32 -215 -55 -213 -51 13 20 173 69 513 153 208 52 504 129 657 171
552 151 692 182 1255 279 74 13 138 24 141 25 4 0 17 -7 29 -17z m-5207 -119
c4 -19 2 -33 -3 -33 -6 0 -10 17 -10 37 0 43 5 41 13 -4z m5137 7 c-8 -5 -24
-9 -35 -9 l-20 0 20 9 c11 5 27 9 35 9 13 1 13 0 0 -9z m-6019 -262 c15 -77 6
-128 -25 -128 -22 0 -23 4 -34 153 -17 217 -15 228 19 122 16 -49 34 -116 40
-147z m6303 195 c7 -16 62 -165 121 -333 254 -722 341 -932 633 -1515 110
-221 167 -344 153 -330 -26 26 -181 297 -266 465 -153 305 -251 534 -385 905
-77 215 -280 813 -280 827 0 16 10 8 24 -19z m-25 -260 c343 -983 535 -1440
785 -1877 l85 -148 -31 -27 c-295 -249 -737 -488 -1155 -625 -409 -133 -768
-189 -1208 -190 -477 0 -886 73 -1325 236 -141 52 -428 187 -565 265 -97 55
-315 196 -315 203 0 5 188 236 267 328 38 45 49 52 72 47 23 -5 29 1 60 55 19
33 39 60 43 60 12 0 11 -5 -32 -90 -25 -50 -36 -81 -29 -85 13 -8 8 -15 52 76
69 141 79 200 86 509 l7 275 36 77 c20 42 50 121 67 175 36 116 81 188 154
242 81 62 152 88 407 152 129 32 357 92 505 134 330 93 643 170 1270 314 264
61 518 122 565 135 47 13 90 24 95 25 6 0 53 -119 104 -266z m-670 253 c-2 -2
-21 -11 -42 -20 -27 -11 -37 -12 -35 -4 3 7 15 15 29 19 28 8 54 11 48 5z
m-1784 -32 c-36 -28 -53 -35 -60 -23 -9 14 -7 15 35 27 47 14 48 14 25 -4z
m1614 -8 c-2 -2 -24 -6 -49 -10 -53 -8 -47 4 7 14 36 6 52 5 42 -4z m-5099
-92 c0 -24 -4 -44 -9 -44 -9 0 -20 88 -12 95 11 12 21 -11 21 -51z m3790 46
c-19 -13 -30 -13 -30 0 0 6 10 10 23 10 18 0 19 -2 7 -10z m3880 -99 c0 -5 -9
-7 -20 -4 -11 3 -20 7 -20 9 0 2 9 4 20 4 11 0 20 -4 20 -9z m-3947 -18 c-7
-2 -19 -2 -25 0 -7 3 -2 5 12 5 14 0 19 -2 13 -5z m-1993 -13 c0 -5 -5 -10
-11 -10 -5 0 -7 5 -4 10 3 6 8 10 11 10 2 0 4 -4 4 -10z m-295 -50 c-69 -33
-85 -36 -85 -16 0 8 22 20 58 29 86 23 94 19 27 -13z m875 26 c0 -3 -4 -8 -10
-11 -5 -3 -10 -1 -10 4 0 6 5 11 10 11 6 0 10 -2 10 -4z m5550 -301 c25 -144
26 -155 10 -155 -15 0 -21 22 -40 145 -20 130 -21 190 -3 171 3 -3 18 -76 33
-161z m-4894 39 c-23 -17 -36 -18 -36 -4 0 12 42 31 50 23 3 -3 -4 -11 -14
-19z m-1898 -11 c-10 -2 -28 -2 -40 0 -13 2 -5 4 17 4 22 1 32 -1 23 -4z m511
-17 c10 -12 8 -17 -9 -26 -26 -14 -31 -11 -23 18 6 26 16 28 32 8z m-626 -15
c-12 -10 -66 -34 -120 -54 -341 -123 -1926 -712 -1985 -737 -39 -17 -73 -29
-75 -26 -20 20 277 142 1147 469 226 85 1021 362 1050 366 3 0 -5 -8 -17 -18z
m6855 -22 l-5 -24 -10 25 c-12 28 -6 47 9 32 5 -5 8 -20 6 -33z m-5781 -15 c1
-5 -11 -17 -27 -26 -38 -21 -53 -3 -19 23 25 19 40 20 46 3z m6505 -13 c-7
-32 -126 -313 -129 -304 -2 5 19 81 47 167 42 128 54 157 68 154 9 -3 16 -10
14 -17z m-702 -43 c0 -5 -4 -8 -10 -8 -5 0 -10 10 -10 23 0 18 2 19 10 7 5 -8
10 -18 10 -22z m-6996 -17 c3 -5 -1 -11 -9 -14 -9 -4 -12 -1 -8 9 6 16 10 17
17 5z m7581 -41 c4 -7 -260 -614 -310 -709 -12 -24 -14 -22 -35 45 l-22 69
171 303 c95 166 176 302 181 302 5 0 11 -4 15 -10z m-473 -99 c-45 -95 -47
-98 -60 -75 -7 14 -10 30 -5 37 12 20 105 137 108 137 2 0 -17 -45 -43 -99z
m877 70 c12 -26 8 -35 -44 -120 -31 -50 -58 -91 -60 -91 -2 0 15 54 37 120 22
66 43 120 48 120 4 0 13 -13 19 -29z m-8169 -1 c0 -5 -12 -10 -27 -9 -25 0
-26 1 -8 9 27 12 35 12 35 0z m809 -4 c-9 -8 -434 -192 -569 -246 -194 -77
-535 -207 -1250 -475 -633 -237 -669 -250 -676 -242 -2 2 71 36 163 75 166 70
322 129 1004 382 564 209 764 288 959 378 210 96 302 131 344 132 16 0 27 -2
25 -4z m86 -5 c6 -11 -82 -54 -99 -48 -10 3 71 57 86 57 4 0 9 -4 13 -9z
m6532 -43 c-8 -18 -33 -84 -58 -145 -24 -62 -48 -113 -54 -113 -5 0 -16 4 -24
9 -12 8 1 36 63 145 43 75 80 136 82 136 2 0 -2 -15 -9 -32z m947 7 c18 -13
16 -17 -28 -80 -26 -36 -52 -65 -58 -65 -5 0 -8 6 -5 13 43 107 60 147 66 147
3 0 14 -7 25 -15z m-6214 -3 c0 -12 -200 -496 -209 -505 -4 -4 -15 -5 -23 -2
-13 5 1 44 77 213 50 114 101 228 113 255 11 26 26 47 31 47 6 0 11 -3 11 -8z
m4930 -27 c0 -5 -5 -3 -10 5 -5 8 -10 20 -10 25 0 6 5 3 10 -5 5 -8 10 -19 10
-25z m-6643 -21 c3 -9 -2305 -879 -2331 -879 -6 0 -11 6 -11 13 0 13 2310 884
2329 879 6 -2 11 -8 13 -13z m-717 -4 c0 -13 -12 -17 -75 -24 l-50 -5 50 18
c58 23 75 25 75 11z m1540 -8 c0 -5 -11 -14 -25 -20 -28 -13 -44 2 -18 17 22
13 43 14 43 3z m4632 -474 c103 -238 185 -434 182 -437 -2 -3 -9 0 -14 5 -10
10 -380 844 -380 856 0 5 6 8 13 8 6 0 96 -195 199 -432z m-6472 378 c-106
-52 -1117 -432 -1127 -423 -3 4 -4 9 -2 12 7 7 1193 454 1204 454 6 0 -28 -19
-75 -43z m2268 9 c-6 -14 -13 -23 -16 -21 -7 7 9 46 18 46 5 0 4 -11 -2 -25z
m6121 -366 c-99 -205 -189 -393 -200 -417 -17 -38 -21 -42 -39 -32 -43 23 -42
25 283 615 60 110 114 206 120 214 37 46 -3 -48 -164 -380z m31 356 c0 -17
-336 -673 -342 -669 -15 10 -8 75 13 117 28 53 276 504 295 535 13 19 34 30
34 17z m-670 -65 c0 -16 -4 -30 -10 -30 -11 0 -14 43 -3 53 11 12 13 8 13 -23z
m-5970 5 c0 -3 -60 -123 -132 -268 -112 -221 -133 -257 -136 -231 -9 92 100
342 194 443 50 54 74 72 74 56z m6830 -20 c0 -8 -4 -15 -10 -15 -5 0 -7 7 -4
15 4 8 8 15 10 15 2 0 4 -7 4 -15z m68 -70 c-12 -25 -23 -43 -25 -41 -7 7 30
96 38 91 4 -3 -1 -26 -13 -50z m-7898 -20 c-322 -127 -1745 -656 -1759 -654
-23 2 828 341 1194 474 215 79 699 244 715 244 8 0 -59 -29 -150 -64z m1400
27 c0 -5 -22 -43 -50 -87 -27 -44 -50 -76 -50 -73 0 21 82 178 90 173 5 -3 10
-9 10 -13z m20 -12 c-6 -11 -13 -20 -16 -20 -2 0 0 9 6 20 6 11 13 20 16 20 2
0 0 -9 -6 -20z m-904 -15 c-31 -82 -130 -322 -135 -327 -5 -6 -148 216 -154
239 -2 7 258 99 287 102 4 1 6 -6 2 -14z m531 -42 c-3 -3 -11 -2 -17 2 -9 6
-9 10 1 16 14 8 27 -7 16 -18z m5980 -25 c-3 -8 -6 -5 -6 6 -1 11 2 17 5 13 3
-3 4 -12 1 -19z m-529 -25 c6 -16 17 -45 26 -65 9 -21 12 -38 7 -38 -7 0 -61
111 -61 126 0 16 20 -1 28 -23z m-7588 -23 c-20 -13 -33 -13 -25 0 3 6 14 10
23 10 15 0 15 -2 2 -10z m1320 -167 c52 -91 94 -168 93 -172 -6 -22 -29 9
-116 155 -87 147 -103 184 -79 184 4 0 50 -75 102 -167z m7601 112 c-1 -9
-305 -541 -358 -628 -20 -32 -26 -36 -43 -27 -18 10 -16 16 36 102 31 51 62
97 70 103 7 5 56 98 108 206 76 158 101 201 132 227 38 31 56 36 55 17z m-742
-36 c13 -38 13 -39 2 -39 -5 0 -11 8 -14 18 -2 9 -8 25 -12 35 -4 9 -3 17 3
17 6 0 15 -14 21 -31z m961 27 c0 -9 -502 -882 -515 -895 -12 -12 -15 -10 -20
11 -6 24 112 227 465 801 46 73 70 102 70 83z m-1487 -96 c3 -11 3 -20 1 -20
-2 0 -8 9 -14 20 -6 11 -7 20 -2 20 6 0 12 -9 15 -20z m-8523 0 c-20 -13 -33
-13 -25 0 3 6 14 10 23 10 15 0 15 -2 2 -10z m2129 -121 c17 -49 12 -58 -9
-19 -22 40 -24 50 -11 50 5 0 14 -14 20 -31z m1621 -5 c0 -13 -4 -24 -10 -24
-5 0 -10 14 -10 31 0 17 4 28 10 24 6 -3 10 -17 10 -31z m-1102 -113 c-7 -11
-16 -17 -21 -14 -4 3 0 11 10 19 24 18 25 17 11 -5z m-412 -48 c-7 -7 -26 7
-26 19 0 6 6 6 15 -2 9 -7 13 -15 11 -17z m-921 -3 c3 -5 -1 -10 -9 -10 -9 0
-16 5 -16 10 0 6 4 10 9 10 6 0 13 -4 16 -10z m-1545 -64 c0 -3 -4 -8 -10 -11
-5 -3 -10 -1 -10 4 0 6 5 11 10 11 6 0 10 -2 10 -4z m2431 -183 c-8 -15 -10
-15 -11 -2 0 17 10 32 18 25 2 -3 -1 -13 -7 -23z m-3651 -12 c0 -10 -100 -55
-107 -47 -5 4 84 55 100 56 4 0 7 -4 7 -9z m2929 -40 c27 -24 41 -43 36 -51
-8 -13 -43 15 -77 63 -27 38 -11 33 41 -12z m691 -55 c0 -28 -22 -76 -35 -76
-11 0 -11 9 3 45 16 43 32 59 32 31z m387 -18 c-2 -7 -17 -53 -32 -103 -30
-100 -35 -108 -57 -100 -14 6 -11 20 19 111 29 86 38 104 55 104 12 0 18 -5
15 -12z m-480 -205 c-3 -10 -5 -4 -5 12 0 17 2 24 5 18 2 -7 2 -21 0 -30z
m-3259 -57 c-9 -7 -331 -97 -334 -94 -2 2 72 31 164 65 131 47 168 57 170 46
2 -8 2 -16 0 -17z m3622 -51 c0 -36 -3 -65 -6 -65 -9 0 -74 41 -74 46 0 2 12
22 26 44 40 60 54 53 54 -25z m-413 -11 c6 -17 -42 -68 -55 -60 -16 10 17 78
37 74 8 -2 16 -8 18 -14z m5884 -73 c-95 -132 -558 -383 -1048 -567 -311 -117
-557 -178 -888 -221 -201 -26 -795 -26 -970 0 -127 19 -339 66 -332 74 3 2 45
-3 94 -12 684 -118 1361 -71 1978 138 367 124 689 288 1035 525 80 54 147 98
149 96 2 -1 -6 -16 -18 -33z m598 -12 c13 -39 14 -49 2 -49 -9 0 -12 8 -27 63
-9 31 14 18 25 -14z m-6165 -56 c24 -34 26 -53 6 -53 -9 0 -50 66 -50 81 0 20
20 7 44 -28z m-434 -55 c0 -39 -12 -68 -26 -68 -15 0 -21 70 -7 83 14 15 33 6
33 -15z m1632 -129 c123 -73 228 -137 233 -142 6 -5 -64 28 -155 75 -91 47
-207 107 -258 132 -80 40 -92 49 -81 62 7 8 18 13 25 10 8 -3 114 -65 236
-137z m-1262 76 c22 -35 22 -62 1 -94 -7 -11 -16 -9 -44 13 l-36 28 22 44 c11
24 24 44 28 44 4 0 17 -16 29 -35z m1179 -159 c468 -258 633 -327 1026 -425
338 -85 478 -106 786 -121 417 -19 851 20 1209 110 262 66 368 105 729 265
238 105 385 156 446 154 19 0 18 -1 -2 -11 -13 -6 -23 -15 -23 -20 0 -11 2
-11 45 8 20 8 39 13 42 11 6 -6 -208 -205 -282 -262 -96 -75 -174 -113 -352
-171 -397 -130 -735 -217 -988 -253 -409 -58 -901 -65 -1228 -16 -351 53 -601
139 -1245 432 -297 135 -351 163 -401 208 l-57 51 34 77 c19 42 39 77 45 77 5
0 102 -51 216 -114z m-1643 8 c-4 -9 -9 -15 -11 -12 -3 3 -3 13 1 22 4 9 9 15
11 12 3 -3 3 -13 -1 -22z m375 -73 l23 -19 -19 -42 -19 -42 -18 42 c-17 41
-17 80 2 80 4 0 18 -8 31 -19z m501 -3 c-7 -7 -12 -8 -12 -2 0 14 12 26 19 19
2 -3 -1 -11 -7 -17z m603 -143 c608 -362 1227 -556 1925 -605 742 -51 1463 91
2178 431 69 32 127 57 130 55 2 -3 -1 -28 -8 -55 l-12 -51 -176 -88 c-445
-222 -916 -346 -1487 -393 -179 -15 -645 -6 -825 15 -572 68 -1118 237 -1574
488 -122 67 -342 204 -351 218 -3 5 2 27 11 50 l16 41 27 -18 c14 -9 80 -49
146 -88z m-650 18 c-8 -46 -12 -53 -31 -53 -18 0 -18 9 1 54 20 48 39 48 30
-1z m1616 -49 c142 -47 268 -94 281 -104 23 -20 23 -20 -22 -4 -226 78 -525
186 -529 189 -11 11 25 1 270 -81z m-1979 44 c-8 -8 -9 -4 -5 13 4 13 8 18 11
10 2 -7 -1 -18 -6 -23z m5837 -41 c-12 -9 -210 -117 -215 -117 -4 0 40 36 97
80 97 76 104 80 113 60 5 -11 7 -22 5 -23z m-6015 -29 c-18 -57 -135 -288
-144 -283 -10 6 -11 5 55 160 26 61 51 120 55 132 12 29 44 20 34 -9z m7669
-325 c61 -140 101 -245 96 -249 -6 -3 -12 -4 -14 -2 -12 12 -152 348 -185 445
-68 195 -61 183 103 -194z m-1636 225 c10 -39 9 -45 -9 -65 -43 -46 -314 -206
-526 -312 -328 -162 -432 -200 -972 -356 -307 -89 -432 -101 -1305 -123 -296
-8 -315 -8 -445 14 -74 13 -281 59 -460 104 -179 44 -335 79 -348 77 -28 -5
-327 110 -502 194 -69 33 -232 119 -362 192 -233 129 -238 133 -238 164 0 17
-6 33 -12 35 -10 4 -10 10 -1 31 l13 27 67 -43 c268 -172 624 -345 943 -460
910 -328 1981 -340 2930 -35 377 121 787 319 1130 547 41 27 77 50 80 50 3 1
11 -18 17 -41z m-4439 -283 c565 -239 1090 -356 1672 -372 679 -18 1360 126
2065 436 154 68 159 69 120 35 -96 -85 -469 -236 -863 -348 -391 -112 -632
-149 -1052 -162 -603 -18 -1211 88 -1770 311 -136 54 -446 205 -577 281 -62
36 -113 67 -113 69 0 1 87 -41 193 -95 105 -54 252 -124 325 -155z m4592 158
c0 -5 -9 -23 -20 -40 l-20 -33 21 0 c34 0 10 -21 -130 -114 -1068 -710 -2476
-947 -3798 -640 -492 114 -1022 337 -1389 584 l-74 50 17 35 c13 28 23 35 45
35 18 0 28 -5 28 -15 0 -8 23 -26 52 -41 28 -14 58 -32 66 -40 7 -8 18 -14 24
-14 5 0 33 -15 61 -34 67 -45 298 -157 309 -150 4 3 62 -23 129 -57 66 -34
131 -64 144 -65 36 -4 149 -36 160 -45 5 -5 0 -9 -13 -9 -12 0 -22 -4 -22 -10
0 -5 17 -10 39 -10 52 0 220 -43 288 -75 30 -14 69 -25 85 -25 16 0 84 -14
150 -30 66 -17 177 -38 247 -46 69 -8 151 -23 181 -34 49 -16 106 -20 495 -29
467 -11 573 -7 715 28 47 12 139 28 205 37 66 9 145 24 175 35 30 10 80 19
112 19 48 0 58 3 58 17 0 14 3 13 23 -5 l23 -21 29 24 c17 13 40 24 53 25 45
0 112 22 112 36 0 8 7 14 15 14 8 0 15 -4 15 -10 0 -5 35 7 78 26 116 53 135
60 287 96 126 29 136 33 100 39 l-40 5 35 16 c19 9 54 22 78 29 23 6 42 18 42
25 0 23 73 54 112 48 28 -5 53 3 134 44 54 28 91 51 82 51 -10 1 -18 6 -18 11
0 15 40 12 40 -2 1 -7 10 -2 21 12 12 14 24 25 28 25 14 0 111 63 201 129 52
39 111 79 130 88 35 18 80 24 80 11z m-6425 -133 c-23 -44 -30 -31 -8 15 10
20 19 32 21 26 2 -5 -4 -24 -13 -41z m1010 -14 c-22 -34 -37 -34 -24 0 15 41
20 47 31 36 6 -6 4 -19 -7 -36z m-1055 -73 c0 -29 -12 -24 -17 7 -2 11 2 20 7
20 6 0 10 -12 10 -27z m8095 -223 c3 -5 1 -10 -4 -10 -6 0 -11 5 -11 10 0 6 2
10 4 10 3 0 8 -4 11 -10z m-760 -280 c3 -5 1 -10 -4 -10 -6 0 -11 5 -11 10 0
6 2 10 4 10 3 0 8 -4 11 -10z m913 -35 c-3 -3 -9 2 -12 12 -6 14 -5 15 5 6 7
-7 10 -15 7 -18z m-885 -30 c14 -25 22 -47 18 -49 -6 -4 -51 74 -51 89 0 14
11 1 33 -40z m1032 -413 c-7 -7 -5 -11 -85 143 -65 124 -70 137 -42 111 l32
-30 1 35 c0 25 13 -3 50 -110 27 -80 47 -147 44 -149z m63 -137 c14 -29 -2
-34 -18 -6 -12 24 -13 31 -2 31 5 0 14 -11 20 -25z m16 -281 c23 -48 14 -54
-13 -9 -23 40 -25 45 -13 45 5 0 16 -16 26 -36z m-8342 -256 c-7 -7 -12 -8
-12 -2 0 14 12 26 19 19 2 -3 -1 -11 -7 -17z m8535 -164 c-8 -8 -46 60 -40 70
3 5 15 -8 25 -28 11 -21 17 -40 15 -42z m223 -509 c107 -239 371 -877 366
-882 -3 -4 -102 202 -259 537 -180 388 -214 469 -220 534 -3 33 -2 55 3 50 4
-5 54 -112 110 -239z m-9792 -109 c-12 -25 -26 -46 -30 -46 -12 0 -11 3 18 54
33 60 42 54 12 -8z m8876 -35 c31 -41 53 -78 50 -82 -14 -22 -33 -2 -78 84
-55 104 -51 104 28 -2z m146 -272 c0 -6 -4 -7 -10 -4 -5 3 -10 11 -10 16 0 6
5 7 10 4 6 -3 10 -11 10 -16z m418 -485 c13 -20 21 -42 18 -49 -2 -7 11 -28
31 -46 l34 -34 -21 55 c-12 30 -24 61 -27 68 -3 6 -1 12 4 12 7 0 83 -141 83
-155 0 -3 -7 -5 -15 -5 -10 0 -3 -20 26 -72 98 -178 140 -271 146 -321 4 -35
2 -49 -5 -42 -5 6 -82 142 -171 304 -128 232 -159 296 -150 307 17 20 21 18
47 -22z m791 -451 c11 -29 17 -53 12 -53 -10 0 -41 73 -41 97 0 23 6 15 29
-44z"/>
<path d="M12070 13411 c0 -24 18 -37 31 -24 13 13 1 43 -17 43 -8 0 -14 -9
-14 -19z"/>
<path d="M12651 12804 c-32 -40 -36 -87 -14 -152 21 -65 44 -82 110 -82 50 0
98 35 108 80 8 36 -34 119 -78 156 -40 34 -98 33 -126 -2z"/>
<path d="M13250 11493 c-43 -8 -47 -23 -7 -23 26 0 37 4 37 15 0 8 -1 14 -2
14 -2 -1 -14 -4 -28 -6z"/>
<path d="M8802 9238 c-26 -26 -6 -118 26 -118 20 0 51 33 57 61 12 51 -48 92
-83 57z"/>
<path d="M13656 15558 c-9 -12 -16 -32 -16 -43 0 -54 67 -88 90 -46 23 44 -1
111 -40 111 -10 0 -26 -10 -34 -22z"/>
<path d="M12784 15478 c-32 -17 -44 -40 -44 -84 0 -34 5 -47 26 -63 54 -42
104 -15 104 55 0 71 -42 115 -86 92z"/>
<path d="M14022 14668 c-20 -20 -15 -86 7 -98 64 -34 103 35 53 93 -18 20 -43
22 -60 5z"/>
<path d="M14872 13184 c-13 -9 -28 -28 -33 -42 -14 -37 15 -100 49 -109 55
-14 95 89 56 145 -18 26 -41 28 -72 6z"/>
<path d="M18405 12395 c-23 -10 -25 -14 -10 -14 21 -1 52 15 45 23 -3 2 -18
-2 -35 -9z"/>
<path d="M18205 12310 c-15 -7 -10 -9 23 -9 23 -1 42 4 42 9 0 12 -37 12 -65
0z"/>
<path d="M18420 12290 c-21 -7 -21 -8 -5 -9 11 0 27 4 35 9 18 11 5 11 -30 0z"/>
<path d="M16098 12163 c-10 -2 -18 -9 -18 -14 0 -6 8 -5 20 1 11 6 20 13 20
15 0 3 -1 4 -2 4 -2 -1 -11 -3 -20 -6z"/>
<path d="M17880 12000 c-13 -8 -12 -10 3 -10 9 0 17 5 17 10 0 12 -1 12 -20 0z"/>
<path d="M18038 11923 c7 -3 16 -2 19 1 4 3 -2 6 -13 5 -11 0 -14 -3 -6 -6z"/>
<path d="M3806 9196 c-80 -57 -105 -114 -71 -163 33 -47 114 -50 197 -7 63 33
54 155 -14 190 -40 21 -60 17 -112 -20z"/>
<path d="M3196 9005 c-34 -31 -35 -71 -2 -86 32 -15 77 1 95 33 13 23 13 29
-2 52 -22 33 -56 34 -91 1z"/>
<path d="M5254 7326 c-19 -19 -34 -41 -34 -49 0 -28 30 -47 75 -47 37 0 47 5
64 29 62 86 -29 143 -105 67z"/>
<path d="M5254 6790 c-45 -18 -41 -52 8 -69 38 -13 68 1 68 32 0 42 -30 56
-76 37z"/>
<path d="M7194 6017 c-23 -20 -28 -34 -32 -84 -8 -106 30 -173 96 -173 86 0
156 154 101 224 -45 58 -119 72 -165 33z"/>
<path d="M5502 4390 c0 -14 2 -19 5 -12 2 6 2 18 0 25 -3 6 -5 1 -5 -13z"/>
<path d="M5932 4402 c-8 -6 -12 -24 -10 -48 2 -31 7 -40 25 -42 27 -4 56 36
51 70 -3 25 -41 36 -66 20z"/>
<path d="M5332 3907 c-19 -22 -52 -101 -52 -123 0 -56 86 -73 140 -28 47 40
64 79 49 115 -6 17 -20 34 -30 39 -26 14 -95 12 -107 -3z"/>
</g>
</svg>
